<?xml version="1.0" standalone="no"?>
<!DOCTYPE svg PUBLIC "-//W3C//DTD SVG 20010904//EN"
 "http://www.w3.org/TR/2001/REC-SVG-20010904/DTD/svg10.dtd">
<svg version="1.0" xmlns="http://www.w3.org/2000/svg"
 width="1216.000000pt" height="1216.000000pt" viewBox="0 0 1216.000000 1216.000000"
 preserveAspectRatio="xMidYMid meet">
<metadata>
Created by potrace 1.14, written by Peter Selinger 2001-2017
</metadata>
<g transform="translate(0.000000,1216.000000) scale(0.100000,-0.100000)"
fill="#000000" stroke="none">
<path d="M5220 11822 c-33 -10 -38 -21 -28 -70 5 -26 11 -58 14 -72 2 -14 9
-45 14 -70 6 -25 12 -54 14 -65 3 -11 9 -42 15 -68 6 -27 9 -53 6 -58 -4 -5
-2 -9 3 -9 5 0 9 -6 10 -12 3 -40 15 -100 33 -167 11 -42 24 -105 29 -141 5
-36 12 -76 15 -90 3 -14 8 -38 11 -54 2 -16 7 -32 9 -36 4 -6 8 -23 21 -90 3
-14 7 -33 10 -42 5 -18 9 -35 24 -118 6 -30 12 -66 15 -80 3 -14 7 -38 10 -55
2 -16 10 -67 16 -111 l13 -82 -41 -103 c-35 -90 -54 -146 -53 -164 0 -13 -47
-129 -81 -202 -22 -44 -39 -86 -39 -92 0 -6 -4 -11 -10 -11 -5 0 -10 -5 -10
-10 0 -10 -99 -191 -110 -200 -21 -18 -88 -192 -114 -295 -64 -256 -52 -391
40 -442 40 -22 60 -27 149 -37 158 -18 202 -25 325 -52 14 -3 48 -7 77 -9 121
-9 146 -63 77 -167 -39 -57 -68 -119 -95 -198 -36 -109 -76 -181 -147 -270
-87 -110 -103 -133 -142 -205 -18 -33 -35 -62 -39 -65 -3 -3 -10 -12 -16 -21
-5 -8 -25 -38 -43 -65 -26 -39 -63 -132 -63 -159 0 -2 -5 -19 -10 -37 -5 -18
-11 -76 -14 -128 -2 -52 -8 -126 -11 -165 -4 -38 -8 -81 -9 -95 -2 -51 28
-183 47 -205 4 -5 8 -17 8 -27 0 -10 4 -18 9 -18 5 0 13 -10 16 -21 4 -12 40
-54 79 -93 57 -57 95 -83 186 -130 63 -32 123 -66 134 -76 21 -20 29 -79 14
-97 -6 -7 -8 -13 -4 -13 4 0 -12 -25 -34 -55 -22 -30 -40 -59 -40 -64 0 -5 -6
-16 -14 -23 -7 -8 -20 -27 -29 -43 -16 -32 -77 -112 -77 -101 0 3 -9 -2 -20
-11 -10 -9 -50 -28 -89 -42 -79 -30 -185 -112 -236 -185 -76 -107 -174 -227
-213 -261 -138 -118 -252 -250 -252 -288 0 -29 42 -66 98 -87 115 -43 210 -87
251 -118 92 -67 159 -156 201 -269 12 -31 24 -61 28 -67 4 -6 7 -13 8 -16 2
-9 24 -55 36 -75 36 -56 116 -172 135 -194 62 -74 102 -122 138 -165 22 -27
48 -58 59 -70 10 -11 28 -32 40 -47 30 -35 53 -44 137 -55 48 -7 78 9 80 44 5
65 4 80 -8 104 -7 16 -11 28 -7 28 4 0 2 6 -4 12 -16 20 -54 137 -48 147 4 5
3 12 -2 15 -5 3 -7 20 -6 38 2 19 5 70 8 115 8 129 8 129 76 148 38 10 80 17
195 30 92 11 208 51 380 131 72 33 197 105 206 118 14 20 36 -4 47 -51 6 -26
20 -82 32 -123 12 -41 22 -85 23 -97 0 -13 4 -23 8 -23 4 0 10 -19 14 -42 4
-24 10 -47 13 -53 4 -5 7 -14 8 -20 1 -5 11 -46 23 -91 12 -44 24 -87 25 -95
2 -8 6 -21 9 -29 3 -8 8 -26 10 -40 3 -14 15 -61 27 -105 12 -44 24 -87 26
-95 2 -8 11 -42 20 -75 9 -33 18 -67 20 -75 2 -8 10 -42 19 -75 8 -33 18 -71
21 -85 3 -14 16 -63 29 -110 13 -47 27 -101 31 -120 11 -47 11 -49 14 -55 1
-3 4 -9 5 -15 1 -5 4 -12 5 -15 1 -3 4 -14 5 -25 1 -11 4 -22 5 -25 1 -3 3 -8
4 -12 16 -72 29 -123 36 -143 5 -14 12 -36 14 -50 3 -14 10 -45 17 -70 6 -25
12 -49 13 -55 1 -5 5 -15 9 -21 8 -14 -10 -22 -62 -30 -102 -15 -216 -41 -332
-74 -57 -17 -108 -32 -114 -33 -38 -11 -146 -56 -233 -99 l-103 -50 -76 6
c-42 4 -85 12 -97 18 -11 6 -23 11 -26 10 -20 -5 -296 79 -377 114 -17 8 -34
14 -39 14 -12 0 -238 92 -251 102 -7 6 -13 8 -13 5 0 -3 -27 8 -60 24 -33 16
-64 29 -69 29 -5 0 -11 4 -13 8 -4 11 -85 48 -138 63 -48 13 -51 14 -120 25
-25 4 -52 9 -60 10 -23 5 -135 15 -230 21 -98 6 -731 10 -743 5 -11 -5 -318
-14 -492 -15 -120 0 -217 7 -256 19 -10 2 -30 6 -45 9 -16 2 -58 11 -94 20
-36 8 -72 17 -80 19 -215 51 -532 169 -764 283 -72 36 -139 72 -148 80 -10 9
-18 13 -18 10 0 -7 -138 80 -158 100 -7 7 -17 13 -22 13 -16 0 -147 138 -164
173 -9 20 -19 60 -22 89 -7 75 -12 109 -19 138 -3 14 -6 37 -7 53 -1 15 -5 27
-10 27 -5 0 -7 4 -3 10 3 5 -2 40 -11 77 -18 73 -21 85 -22 93 -1 3 -11 32
-22 65 -12 33 -22 65 -24 70 -1 9 -12 38 -36 100 -4 11 -17 41 -29 66 -12 25
-23 52 -25 61 -1 9 -7 22 -13 29 -6 8 -19 32 -29 54 l-19 40 -3 -335 c-2 -267
1 -351 13 -415 8 -44 17 -102 19 -130 3 -27 5 -50 6 -50 1 0 3 -13 5 -30 4
-40 38 -117 74 -168 32 -45 135 -157 144 -157 3 0 17 -10 30 -23 36 -34 91
-77 100 -77 5 0 23 -11 40 -24 137 -103 527 -284 782 -363 28 -8 55 -18 60
-21 6 -4 19 -8 30 -9 11 -2 47 -12 80 -23 71 -23 257 -70 300 -76 16 -2 40 -6
53 -9 12 -3 32 -7 44 -10 85 -18 229 -21 548 -10 113 4 298 8 412 9 115 1 208
5 208 9 0 4 8 4 18 0 21 -10 53 -10 69 0 6 4 14 4 17 -1 4 -7 42 -8 71 -2 6 1
12 2 15 1 3 -1 59 -4 125 -6 66 -2 140 -7 165 -10 47 -6 131 -18 140 -20 50
-13 77 -24 140 -56 222 -111 625 -267 815 -315 156 -39 207 -47 302 -47 92 0
93 0 205 55 97 48 131 64 158 73 3 1 14 5 25 9 11 4 31 12 45 16 14 4 34 12
45 16 11 4 24 6 29 5 4 -1 14 4 22 10 8 6 14 8 14 4 0 -4 7 -2 15 5 8 7 15 10
15 7 0 -3 16 -1 36 5 20 5 46 12 58 14 29 6 107 22 131 27 55 12 135 18 134
10 -2 -8 5 -43 22 -103 5 -19 11 -46 13 -60 3 -14 5 -26 7 -27 1 -2 3 -7 4
-13 1 -5 3 -11 5 -12 2 -3 7 -26 14 -68 2 -14 5 -25 6 -25 2 0 7 -17 20 -75 6
-25 15 -63 21 -85 5 -22 12 -53 14 -68 3 -15 9 -37 15 -47 6 -11 9 -20 6 -20
-3 0 0 -15 5 -32 5 -18 12 -44 14 -58 3 -14 14 -59 26 -100 11 -41 21 -82 21
-90 0 -8 5 -21 11 -28 5 -6 7 -12 4 -12 -3 0 -1 -15 4 -32 5 -18 12 -46 15
-63 3 -16 11 -52 19 -80 8 -27 16 -61 19 -75 2 -14 14 -61 25 -106 12 -45 24
-91 26 -103 3 -11 7 -31 10 -42 2 -12 14 -58 26 -103 11 -45 23 -92 25 -106 3
-14 10 -43 16 -65 14 -50 17 -64 20 -92 1 -13 5 -23 9 -23 3 0 6 -6 6 -12 1
-14 3 -22 33 -148 11 -47 23 -96 26 -109 3 -14 7 -28 10 -32 2 -4 9 -29 14
-56 6 -26 13 -59 16 -73 3 -14 7 -32 9 -40 2 -8 4 -15 5 -15 2 0 3 -6 13 -55
3 -14 13 -50 21 -82 8 -31 18 -67 20 -80 12 -52 38 -155 47 -186 6 -18 12 -42
14 -55 3 -12 17 -71 33 -132 l29 -110 62 -3 c61 -3 63 -3 55 20 -4 13 -9 32
-10 43 -4 26 -12 60 -14 60 -1 0 -3 7 -14 50 -2 11 -19 76 -36 145 -18 69 -34
134 -37 145 -6 30 -9 38 -16 60 -3 11 -8 31 -11 45 -3 14 -23 97 -46 185 -23
88 -43 167 -45 175 -2 8 -16 62 -30 120 -15 58 -28 110 -29 115 -2 6 -5 17 -8
25 -3 8 -24 94 -48 190 -23 96 -46 189 -50 205 -5 17 -14 50 -21 75 -6 25 -14
52 -16 60 -3 8 -7 24 -8 35 -1 11 -19 83 -39 160 -21 77 -39 148 -41 158 -2
10 -18 71 -34 136 -17 65 -32 127 -34 137 -1 10 -6 24 -9 30 -4 6 -10 24 -12
40 -11 58 -16 77 -25 108 -6 17 -12 42 -15 56 -3 14 -19 79 -36 145 -17 66
-34 131 -36 145 -3 14 -8 34 -11 45 -7 21 -9 29 -16 60 -3 11 -7 27 -9 35 -3
15 -2 15 97 25 212 19 557 20 765 0 104 -9 145 -14 180 -20 99 -17 418 -23
585 -11 189 13 403 24 488 25 21 1 36 5 33 10 -10 15 -276 142 -350 166 -113
37 -191 44 -321 31 -93 -10 -246 -6 -340 8 -22 3 -62 8 -90 11 -27 3 -63 8
-80 10 -118 14 -235 19 -475 19 -257 1 -340 -3 -497 -20 -62 -6 -69 -3 -64 28
0 4 -6 23 -14 42 -9 20 -13 36 -10 36 2 0 0 11 -5 25 -5 14 -12 36 -14 48 -2
12 -12 51 -21 87 -9 36 -19 72 -20 80 -2 8 -4 16 -5 18 -3 2 -3 2 -15 57 -4
22 -9 45 -11 50 -1 6 -17 66 -34 135 -17 69 -34 132 -37 140 -6 15 -9 26 -17
70 -5 25 -31 124 -59 230 -9 30 -13 58 -11 62 3 5 1 8 -4 8 -5 0 -9 6 -10 13
-3 28 -10 62 -11 62 -4 0 -11 37 -14 62 -1 13 -4 23 -7 23 -3 0 -6 8 -7 18 -1
9 -20 89 -43 177 -23 88 -43 165 -44 170 -9 38 -30 131 -31 135 -1 3 -5 23
-10 45 -4 22 -10 49 -12 60 -2 11 -6 31 -9 45 -15 73 28 131 166 225 41 28 92
67 114 88 22 21 78 64 124 95 239 160 267 242 157 467 -60 124 -102 219 -115
260 -20 63 -49 105 -124 175 -196 184 -223 219 -231 295 -5 43 -1 57 25 100
17 28 46 70 65 95 19 25 40 56 46 70 6 14 17 32 25 41 8 9 17 27 19 40 3 12
20 56 39 96 30 63 39 73 61 73 74 0 175 55 175 95 0 7 4 15 8 17 12 5 64 118
77 168 3 10 23 55 57 130 19 41 40 91 47 110 7 19 17 44 22 55 7 17 27 88 35
120 21 98 28 246 14 304 -7 31 -36 88 -71 141 -32 49 -59 94 -59 100 0 5 -3
10 -7 10 -15 0 -13 81 2 114 14 30 76 75 115 84 42 9 117 -1 130 -18 14 -18
141 -63 184 -65 55 -3 96 11 96 32 0 7 5 13 11 13 5 0 8 4 5 8 -3 4 -7 26 -10
48 -3 25 -26 76 -58 130 -34 57 -52 97 -50 113 4 23 13 42 91 184 28 51 44 93
46 120 5 86 -63 185 -199 294 -97 76 -137 96 -190 94 -75 -2 -101 -13 -225
-95 -161 -107 -207 -129 -261 -129 -26 1 -57 6 -69 12 -11 7 -39 14 -62 16
l-40 4 6 -36 c3 -19 18 -62 34 -94 17 -36 28 -73 27 -94 -1 -19 2 -35 6 -35 7
0 -21 -78 -36 -98 -11 -15 -81 -53 -87 -48 -2 2 -20 7 -39 10 -85 13 -329 112
-338 137 -2 5 -10 9 -18 9 -8 0 -25 7 -38 15 -83 55 -286 65 -441 23 -54 -14
-113 -11 -142 7 -33 22 -54 76 -67 176 -3 19 -8 50 -11 69 -4 19 -8 44 -10 55
-2 17 -28 126 -40 175 -15 55 -22 89 -20 92 5 6 18 133 18 173 0 85 -25 168
-73 240 -26 40 -68 131 -76 166 -2 11 -7 29 -10 42 -3 12 -8 33 -10 47 -3 14
-6 34 -9 45 -2 11 -7 36 -10 55 -3 19 -15 62 -25 95 -19 58 -27 97 -36 160 -2
17 -11 55 -19 85 -8 30 -18 68 -21 84 -3 16 -7 33 -9 37 -6 9 -55 226 -60 265
-2 17 -18 84 -35 150 -42 159 -40 153 -45 201 -2 24 -9 51 -14 62 -6 10 -8 21
-5 23 7 8 -29 15 -46 10z m376 -2074 c39 -112 67 -225 79 -326 2 -18 7 -36 10
-41 3 -5 1 -13 -5 -16 -7 -4 -8 -11 -1 -18 11 -15 -14 -81 -28 -73 -5 4 -11 2
-13 -4 -7 -21 -78 -29 -145 -17 -68 12 -86 47 -85 165 0 92 4 134 17 192 3 14
7 34 9 45 14 72 88 170 124 163 9 -2 25 -31 38 -70z m671 -3680 c135 -102 182
-146 184 -176 6 -80 -8 -100 -108 -152 -37 -19 -72 -41 -76 -47 -4 -7 -12 -13
-18 -13 -5 0 -35 -16 -65 -35 -30 -19 -58 -35 -62 -35 -4 0 -38 -25 -77 -56
-65 -52 -97 -71 -135 -79 -8 -2 -15 -4 -15 -5 0 -2 -19 -6 -155 -35 -69 -14
-132 -27 -141 -29 -20 -5 -122 -56 -129 -65 -12 -15 -81 -62 -103 -70 -31 -12
-54 9 -60 54 -6 42 26 94 89 140 29 22 66 63 83 90 29 48 47 61 132 98 38 17
75 50 126 113 50 61 58 71 154 204 50 69 95 127 100 128 5 2 7 8 3 13 -3 5 2
12 10 15 9 3 16 12 16 18 0 12 27 29 60 39 22 6 41 -5 187 -115z"/>
<path d="M4847 5181 c-6 -25 7 -44 33 -46 30 -2 33 9 9 39 -24 31 -35 33 -42
7z"/>
</g>
</svg>
